<mxfile host="Electron" modified="2024-02-07T19:46:19.191Z" agent="Mozilla/5.0 (Windows NT 10.0; Win64; x64) AppleWebKit/537.36 (KHTML, like Gecko) draw.io/23.0.2 Chrome/120.0.6099.109 Electron/28.1.0 Safari/537.36" etag="YUqzxDu6aSMSiaLtQ4A4" version="23.0.2" type="device">
  <diagram name="Page-1" id="NoMDZMqiE9tT8lNX-2nH">
    <mxGraphModel dx="1050" dy="1689" grid="1" gridSize="10" guides="1" tooltips="1" connect="1" arrows="1" fold="1" page="1" pageScale="1" pageWidth="850" pageHeight="1100" background="#ffffff" math="0" shadow="0">
      <root>
        <mxCell id="0" />
        <mxCell id="1" parent="0" />
        <mxCell id="7IEczPaFFcGmBDg-Cxxi-20" value="Azure Blob Storage" style="rounded=0;whiteSpace=wrap;html=1;fontColor=#000000;labelPosition=center;verticalLabelPosition=top;align=center;verticalAlign=bottom;fillColor=none;strokeColor=#000000;" vertex="1" parent="1">
          <mxGeometry x="386" y="197" width="190" height="60" as="geometry" />
        </mxCell>
        <mxCell id="7IEczPaFFcGmBDg-Cxxi-2" value="Unprocessed images" style="rounded=0;whiteSpace=wrap;html=1;fillColor=none;labelPosition=center;verticalLabelPosition=top;align=center;verticalAlign=bottom;fontColor=#00bef2;strokeColor=#000000;fontStyle=1" vertex="1" parent="1">
          <mxGeometry x="10" y="20" width="70" height="230" as="geometry" />
        </mxCell>
        <mxCell id="7IEczPaFFcGmBDg-Cxxi-1" value="foo.png" style="sketch=0;outlineConnect=0;fontColor=#232F3E;gradientColor=none;fillColor=#ED7100;strokeColor=none;dashed=0;verticalLabelPosition=bottom;verticalAlign=top;align=center;html=1;fontSize=12;fontStyle=0;aspect=fixed;pointerEvents=1;shape=mxgraph.aws4.container_registry_image;" vertex="1" parent="1">
          <mxGeometry x="25" y="29" width="40" height="40" as="geometry" />
        </mxCell>
        <mxCell id="7IEczPaFFcGmBDg-Cxxi-3" value="bar.jpg" style="sketch=0;outlineConnect=0;fontColor=#232F3E;gradientColor=none;fillColor=#ED7100;strokeColor=none;dashed=0;verticalLabelPosition=bottom;verticalAlign=top;align=center;html=1;fontSize=12;fontStyle=0;aspect=fixed;pointerEvents=1;shape=mxgraph.aws4.container_registry_image;" vertex="1" parent="1">
          <mxGeometry x="25" y="104" width="40" height="40" as="geometry" />
        </mxCell>
        <mxCell id="7IEczPaFFcGmBDg-Cxxi-4" value="baz.gif" style="sketch=0;outlineConnect=0;fontColor=#232F3E;gradientColor=none;fillColor=#ED7100;strokeColor=none;dashed=0;verticalLabelPosition=bottom;verticalAlign=top;align=center;html=1;fontSize=12;fontStyle=0;aspect=fixed;pointerEvents=1;shape=mxgraph.aws4.container_registry_image;" vertex="1" parent="1">
          <mxGeometry x="25" y="180" width="40" height="40" as="geometry" />
        </mxCell>
        <mxCell id="7IEczPaFFcGmBDg-Cxxi-5" value="&lt;i&gt;pipe&lt;/i&gt;&lt;br&gt;Azure Queue Storage&lt;br&gt;(claim check to blob)" style="verticalLabelPosition=bottom;html=1;verticalAlign=top;align=center;strokeColor=none;fillColor=#00BEF2;shape=mxgraph.azure.queue_generic;pointerEvents=1;fontColor=#000000;" vertex="1" parent="1">
          <mxGeometry x="90" y="26.5" width="150" height="45" as="geometry" />
        </mxCell>
        <mxCell id="7IEczPaFFcGmBDg-Cxxi-7" value="&lt;i&gt;pipe&lt;/i&gt;&lt;br&gt;Storage queue&lt;br&gt;(claim check to blob)" style="verticalLabelPosition=bottom;html=1;verticalAlign=top;align=center;strokeColor=none;fillColor=#00BEF2;shape=mxgraph.azure.queue_generic;pointerEvents=1;fontColor=#000000;" vertex="1" parent="1">
          <mxGeometry x="358" y="26.5" width="150" height="45" as="geometry" />
        </mxCell>
        <mxCell id="7IEczPaFFcGmBDg-Cxxi-9" value="&lt;i&gt;pipe&lt;/i&gt;&lt;br&gt;Azure Queue Storage&lt;br&gt;(claim check to blob)" style="verticalLabelPosition=bottom;html=1;verticalAlign=top;align=center;strokeColor=none;fillColor=#00BEF2;shape=mxgraph.azure.queue_generic;pointerEvents=1;fontColor=#000000;" vertex="1" parent="1">
          <mxGeometry x="639" y="26.5" width="150" height="45" as="geometry" />
        </mxCell>
        <mxCell id="7IEczPaFFcGmBDg-Cxxi-11" value="" style="endArrow=none;dashed=1;html=1;strokeWidth=7;rounded=0;strokeColor=#666666;dashPattern=1 2;startArrow=none;startFill=0;curved=0;" edge="1" parent="1">
          <mxGeometry width="50" height="50" relative="1" as="geometry">
            <mxPoint x="582" y="48.58" as="sourcePoint" />
            <mxPoint x="641" y="49" as="targetPoint" />
          </mxGeometry>
        </mxCell>
        <mxCell id="7IEczPaFFcGmBDg-Cxxi-14" value="Processed images" style="rounded=0;whiteSpace=wrap;html=1;fillColor=none;labelPosition=center;verticalLabelPosition=top;align=center;verticalAlign=bottom;fontColor=#00bef2;strokeColor=#000000;fontStyle=1" vertex="1" parent="1">
          <mxGeometry x="880" y="20" width="70" height="230" as="geometry" />
        </mxCell>
        <mxCell id="7IEczPaFFcGmBDg-Cxxi-15" value="foo.png" style="sketch=0;outlineConnect=0;fontColor=#232F3E;gradientColor=none;fillColor=#ED7100;strokeColor=none;dashed=0;verticalLabelPosition=bottom;verticalAlign=top;align=center;html=1;fontSize=12;fontStyle=0;aspect=fixed;pointerEvents=1;shape=mxgraph.aws4.container_registry_image;" vertex="1" parent="1">
          <mxGeometry x="895" y="29" width="40" height="40" as="geometry" />
        </mxCell>
        <mxCell id="7IEczPaFFcGmBDg-Cxxi-16" value="bar.jpg" style="sketch=0;outlineConnect=0;fontColor=#232F3E;gradientColor=none;fillColor=#ED7100;strokeColor=none;dashed=0;verticalLabelPosition=bottom;verticalAlign=top;align=center;html=1;fontSize=12;fontStyle=0;aspect=fixed;pointerEvents=1;shape=mxgraph.aws4.container_registry_image;" vertex="1" parent="1">
          <mxGeometry x="895" y="104" width="40" height="40" as="geometry" />
        </mxCell>
        <mxCell id="7IEczPaFFcGmBDg-Cxxi-17" value="baz.gif" style="sketch=0;outlineConnect=0;fontColor=#232F3E;gradientColor=none;fillColor=#ED7100;strokeColor=none;dashed=0;verticalLabelPosition=bottom;verticalAlign=top;align=center;html=1;fontSize=12;fontStyle=0;aspect=fixed;pointerEvents=1;shape=mxgraph.aws4.container_registry_image;" vertex="1" parent="1">
          <mxGeometry x="895" y="180" width="40" height="40" as="geometry" />
        </mxCell>
        <mxCell id="7IEczPaFFcGmBDg-Cxxi-18" value="" style="shape=image;verticalLabelPosition=bottom;labelBackgroundColor=default;verticalAlign=top;aspect=fixed;imageAspect=0;image=data:image/svg+xml,PHN2ZyB4bWxucz0iaHR0cDovL3d3dy53My5vcmcvMjAwMC9zdmciIHZpZXdCb3g9IjAgMCAxOCAxOCIgaGVpZ2h0PSIxOCIgd2lkdGg9IjE4IiBpZD0iZjJmMDQzNDktOGFlZS00NDEzLTg0YzktYTkwNTM2MTFiMzE5Ij48ZGVmcz48bGluZWFyR3JhZGllbnQgZ3JhZGllbnRVbml0cz0idXNlclNwYWNlT25Vc2UiIHkyPSI1Ljc5IiB4Mj0iOSIgeTE9IjE1LjgzIiB4MT0iOSIgaWQ9ImFkNGM0Zjk2LTA5YWEtNGY5MS1iYTEwLTVjYjhhZDUzMGY3NCI+PHN0b3Agc3RvcC1jb2xvcj0iI2IzYjNiMyIgb2Zmc2V0PSIwIi8+PHN0b3Agc3RvcC1jb2xvcj0iI2MxYzFjMSIgb2Zmc2V0PSIwLjI2Ii8+PHN0b3Agc3RvcC1jb2xvcj0iI2U2ZTZlNiIgb2Zmc2V0PSIxIi8+PC9saW5lYXJHcmFkaWVudD48L2RlZnM+PHRpdGxlPkljb24tc3RvcmFnZS04NjwvdGl0bGU+PHBhdGggZmlsbD0idXJsKCNhZDRjNGY5Ni0wOWFhLTRmOTEtYmExMC01Y2I4YWQ1MzBmNzQpIiBkPSJNLjUsNS43OWgxN2EwLDAsMCwwLDEsMCwwdjkuNDhhLjU3LjU3LDAsMCwxLS41Ny41N0gxLjA3YS41Ny41NywwLDAsMS0uNTctLjU3VjUuNzlBMCwwLDAsMCwxLC41LDUuNzlaIi8+PHBhdGggZmlsbD0iIzM3YzJiMSIgZD0iTTEuMDcsMi4xN0gxNi45M2EuNTcuNTcsMCwwLDEsLjU3LjU3VjUuNzlhMCwwLDAsMCwxLDAsMEguNWEwLDAsMCwwLDEsMCwwVjIuNzNBLjU3LjU3LDAsMCwxLDEuMDcsMi4xN1oiLz48cGF0aCBmaWxsPSIjZmZmIiBkPSJNMi44MSw2Ljg5SDE1LjE4YS4yNy4yNywwLDAsMSwuMjYuMjd2MS40YS4yNy4yNywwLDAsMS0uMjYuMjdIMi44MWEuMjcuMjcsMCwwLDEtLjI2LS4yN1Y3LjE2QS4yNy4yNywwLDAsMSwyLjgxLDYuODlaIi8+PHBhdGggZmlsbD0iIzM3YzJiMSIgZD0iTTIuODIsOS42OEgxNS4xOWEuMjcuMjcsMCwwLDEsLjI2LjI3djEuNDFhLjI3LjI3LDAsMCwxLS4yNi4yN0gyLjgyYS4yNy4yNywwLDAsMS0uMjYtLjI3VjEwQS4yNy4yNywwLDAsMSwyLjgyLDkuNjhaIi8+PHBhdGggZmlsbD0iIzI1ODI3NyIgZD0iTTIuODIsMTIuNUgxNS4xOWEuMjcuMjcsMCwwLDEsLjI2LjI3djEuNDFhLjI3LjI3LDAsMCwxLS4yNi4yN0gyLjgyYS4yNy4yNywwLDAsMS0uMjYtLjI3VjEyLjc3QS4yNy4yNywwLDAsMSwyLjgyLDEyLjVaIi8+PC9zdmc+;" vertex="1" parent="1">
          <mxGeometry x="457" y="133" width="50" height="50" as="geometry" />
        </mxCell>
        <mxCell id="7IEczPaFFcGmBDg-Cxxi-19" value="foo.png" style="shape=image;verticalLabelPosition=bottom;labelBackgroundColor=none;verticalAlign=top;aspect=fixed;imageAspect=0;image=data:image/svg+xml,PHN2ZyB4bWxucz0iaHR0cDovL3d3dy53My5vcmcvMjAwMC9zdmciIHZpZXdCb3g9IjAgMCAxOCAxOCIgaGVpZ2h0PSIxOCIgd2lkdGg9IjE4Ij48ZGVmcz48bGluZWFyR3JhZGllbnQgZ3JhZGllbnRVbml0cz0idXNlclNwYWNlT25Vc2UiIHkyPSI1Ljc4OCIgeDI9IjkiIHkxPSIxNS44MzQiIHgxPSI5IiBpZD0iYTljNjIzMDctMWNkMC00MDBjLTkxMWItMTdlYzZhOTExMGNlIj48c3RvcCBzdG9wLWNvbG9yPSIjMzJiZWRkIiBvZmZzZXQ9IjAiLz48c3RvcCBzdG9wLWNvbG9yPSIjMzJkNGY1IiBvZmZzZXQ9IjAuNzc1Ii8+PC9saW5lYXJHcmFkaWVudD48L2RlZnM+PHRpdGxlPk1zUG9ydGFsRnguYmFzZS5pbWFnZXMtNzwvdGl0bGU+PGcgaWQ9ImYzMWQyMTRlLWYwOWUtNDllMy1iM2QyLTdjNWQ1NTY4MmQwOSI+PGc+PHBhdGggZmlsbD0idXJsKCNhOWM2MjMwNy0xY2QwLTQwMGMtOTExYi0xN2VjNmE5MTEwY2UpIiBkPSJNLjUsNS43ODhoMTdhMCwwLDAsMCwxLDAsMHY5LjQ3OGEuNTY4LjU2OCwwLDAsMS0uNTY4LjU2OEgxLjA2OEEuNTY4LjU2OCwwLDAsMSwuNSwxNS4yNjZWNS43ODhBMCwwLDAsMCwxLC41LDUuNzg4WiIvPjxwYXRoIGZpbGw9IiMwMDc4ZDQiIGQ9Ik0xLjA3MSwyLjE2NkgxNi45MjlhLjU2OC41NjgsMCwwLDEsLjU2OC41NjhWNS43ODhhMCwwLDAsMCwxLDAsMEguNWEwLDAsMCwwLDEsMCwwVjIuNzM0QS41NjguNTY4LDAsMCwxLDEuMDcxLDIuMTY2WiIvPjxyZWN0IGZpbGw9IiMwMDc4ZDQiIHJ4PSIwLjI4MyIgaGVpZ2h0PSIzLjQwOCIgd2lkdGg9IjYuMjgxIiB5PSI3LjA0OSIgeD0iMi4zMjgiLz48cmVjdCBmaWxsPSIjZmZmIiByeD0iMC4yODMiIGhlaWdodD0iMy40MDgiIHdpZHRoPSI2LjI4MSIgeT0iNy4wNDkiIHg9IjkuMzM2Ii8+PHJlY3QgZmlsbD0iIzAwNzhkNCIgcng9IjAuMjgzIiBoZWlnaHQ9IjMuNDA4IiB3aWR0aD0iNi4yODEiIHk9IjExLjEyOCIgeD0iMi4yOTYiLz48cmVjdCBmaWxsPSIjMDA3OGQ0IiByeD0iMC4yODMiIGhlaWdodD0iMy40MDgiIHdpZHRoPSI2LjI4MSIgeT0iMTEuMTI4IiB4PSI5LjMwNCIvPjwvZz48L2c+PC9zdmc+;fontColor=#000000;" vertex="1" parent="1">
          <mxGeometry x="408" y="200" width="30" height="30" as="geometry" />
        </mxCell>
        <mxCell id="7IEczPaFFcGmBDg-Cxxi-24" value="baz.gif" style="shape=image;verticalLabelPosition=bottom;labelBackgroundColor=none;verticalAlign=top;aspect=fixed;imageAspect=0;image=data:image/svg+xml,PHN2ZyB4bWxucz0iaHR0cDovL3d3dy53My5vcmcvMjAwMC9zdmciIHZpZXdCb3g9IjAgMCAxOCAxOCIgaGVpZ2h0PSIxOCIgd2lkdGg9IjE4Ij48ZGVmcz48bGluZWFyR3JhZGllbnQgZ3JhZGllbnRVbml0cz0idXNlclNwYWNlT25Vc2UiIHkyPSI1Ljc4OCIgeDI9IjkiIHkxPSIxNS44MzQiIHgxPSI5IiBpZD0iYTljNjIzMDctMWNkMC00MDBjLTkxMWItMTdlYzZhOTExMGNlIj48c3RvcCBzdG9wLWNvbG9yPSIjMzJiZWRkIiBvZmZzZXQ9IjAiLz48c3RvcCBzdG9wLWNvbG9yPSIjMzJkNGY1IiBvZmZzZXQ9IjAuNzc1Ii8+PC9saW5lYXJHcmFkaWVudD48L2RlZnM+PHRpdGxlPk1zUG9ydGFsRnguYmFzZS5pbWFnZXMtNzwvdGl0bGU+PGcgaWQ9ImYzMWQyMTRlLWYwOWUtNDllMy1iM2QyLTdjNWQ1NTY4MmQwOSI+PGc+PHBhdGggZmlsbD0idXJsKCNhOWM2MjMwNy0xY2QwLTQwMGMtOTExYi0xN2VjNmE5MTEwY2UpIiBkPSJNLjUsNS43ODhoMTdhMCwwLDAsMCwxLDAsMHY5LjQ3OGEuNTY4LjU2OCwwLDAsMS0uNTY4LjU2OEgxLjA2OEEuNTY4LjU2OCwwLDAsMSwuNSwxNS4yNjZWNS43ODhBMCwwLDAsMCwxLC41LDUuNzg4WiIvPjxwYXRoIGZpbGw9IiMwMDc4ZDQiIGQ9Ik0xLjA3MSwyLjE2NkgxNi45MjlhLjU2OC41NjgsMCwwLDEsLjU2OC41NjhWNS43ODhhMCwwLDAsMCwxLDAsMEguNWEwLDAsMCwwLDEsMCwwVjIuNzM0QS41NjguNTY4LDAsMCwxLDEuMDcxLDIuMTY2WiIvPjxyZWN0IGZpbGw9IiMwMDc4ZDQiIHJ4PSIwLjI4MyIgaGVpZ2h0PSIzLjQwOCIgd2lkdGg9IjYuMjgxIiB5PSI3LjA0OSIgeD0iMi4zMjgiLz48cmVjdCBmaWxsPSIjZmZmIiByeD0iMC4yODMiIGhlaWdodD0iMy40MDgiIHdpZHRoPSI2LjI4MSIgeT0iNy4wNDkiIHg9IjkuMzM2Ii8+PHJlY3QgZmlsbD0iIzAwNzhkNCIgcng9IjAuMjgzIiBoZWlnaHQ9IjMuNDA4IiB3aWR0aD0iNi4yODEiIHk9IjExLjEyOCIgeD0iMi4yOTYiLz48cmVjdCBmaWxsPSIjMDA3OGQ0IiByeD0iMC4yODMiIGhlaWdodD0iMy40MDgiIHdpZHRoPSI2LjI4MSIgeT0iMTEuMTI4IiB4PSI5LjMwNCIvPjwvZz48L2c+PC9zdmc+;fontColor=#000000;" vertex="1" parent="1">
          <mxGeometry x="526" y="200" width="30" height="30" as="geometry" />
        </mxCell>
        <mxCell id="7IEczPaFFcGmBDg-Cxxi-28" value="&lt;i&gt;filter&lt;/i&gt;&lt;br&gt;Azure Function&lt;br&gt;(content moderation)" style="shape=image;verticalLabelPosition=bottom;labelBackgroundColor=none;verticalAlign=top;aspect=fixed;imageAspect=0;image=data:image/svg+xml,PHN2ZyB4bWxucz0iaHR0cDovL3d3dy53My5vcmcvMjAwMC9zdmciIHZpZXdCb3g9IjAgMCAxOCAxOCIgaGVpZ2h0PSIxOCIgd2lkdGg9IjE4IiBpZD0iYTJjODgzMDYtZmEwMy00ZTViLWIxOTItNDAxZjBiNzc4MDhiIj48ZGVmcz48bGluZWFyR3JhZGllbnQgZ3JhZGllbnRVbml0cz0idXNlclNwYWNlT25Vc2UiIGdyYWRpZW50VHJhbnNmb3JtPSJ0cmFuc2xhdGUoMjEyLjU3MyAzNzAuNTQ4KSBzY2FsZSgxLjE1NiAxLjAyOSkiIHkyPSItMzU5LjIzMiIgeDI9Ii0xNzUuOTkzIiB5MT0iLTM0My43MjMiIHgxPSItMTc1Ljk5MyIgaWQ9ImI0MDNhY2E3LWYzODctNDQzNC05NmI0LWFlMTU3ZWRjODM1ZiI+PHN0b3Agc3RvcC1jb2xvcj0iI2ZlYTExYiIgb2Zmc2V0PSIwIi8+PHN0b3Agc3RvcC1jb2xvcj0iI2ZlYTUxYSIgb2Zmc2V0PSIwLjI4NCIvPjxzdG9wIHN0b3AtY29sb3I9IiNmZWIwMTgiIG9mZnNldD0iMC41NDciLz48c3RvcCBzdG9wLWNvbG9yPSIjZmZjMzE0IiBvZmZzZXQ9IjAuOCIvPjxzdG9wIHN0b3AtY29sb3I9IiNmZmQ3MGYiIG9mZnNldD0iMSIvPjwvbGluZWFyR3JhZGllbnQ+PC9kZWZzPjx0aXRsZT5JY29uLWNvbXB1dGUtMjk8L3RpdGxlPjxnPjxwYXRoIGZpbGw9IiM1MGU2ZmYiIHRyYW5zZm9ybT0idHJhbnNsYXRlKDEyLjUwNyAxNi43MDUpIHJvdGF0ZSgxMzQuOTE5KSIgZD0iTTIuMzcsNy40NzVIMy4yYS4yNjcuMjY3LDAsMCwxLC4yNjcuMjY3djYuMTQ4YS41MzMuNTMzLDAsMCwxLS41MzMuNTMzSDIuMWEwLDAsMCwwLDEsMCwwVjcuNzQxYS4yNjcuMjY3LDAsMCwxLC4yNjctLjI2N1oiLz48cGF0aCBmaWxsPSIjMTQ5MGRmIiB0cmFuc2Zvcm09InRyYW5zbGF0ZSg1Ljc1OSAwLjExNCkgcm90YXRlKDQ0LjkxOSkiIGQ9Ik0yLjMyNSwzLjZoLjgzM2EuMjY3LjI2NywwLDAsMSwuMjY3LjI2N3Y2LjU4M2EwLDAsMCwwLDEsMCwwSDIuNTkxYS41MzMuNTMzLDAsMCwxLS41MzMtLjUzM1YzLjg2NUEuMjY3LjI2NywwLDAsMSwyLjMyNSwzLjZaIi8+PC9nPjxnPjxwYXRoIGZpbGw9IiM1MGU2ZmYiIHRyYW5zZm9ybT0idHJhbnNsYXRlKDEyLjIyMyAtNy41NTUpIHJvdGF0ZSg0NS4wODEpIiBkPSJNMTQuNTMsNy40NzVoLjgzM2EuNTMzLjUzMywwLDAsMSwuNTMzLjUzM3Y2LjE0OGEuMjY3LjI2NywwLDAsMS0uMjY3LjI2N0gxNC44YS4yNjcuMjY3LDAsMCwxLS4yNjctLjI2N1Y3LjQ3NWEwLDAsMCwwLDEsMCwwWiIvPjxwYXRoIGZpbGw9IiMxNDkwZGYiIHRyYW5zZm9ybT0idHJhbnNsYXRlKDMxLjAyMiAxLjIyMikgcm90YXRlKDEzNS4wODEpIiBkPSJNMTUuMTA4LDMuNmguODMzYTAsMCwwLDAsMSwwLDB2Ni41ODNhLjI2Ny4yNjcsMCwwLDEtLjI2Ny4yNjdoLS44MzNhLjI2Ny4yNjcsMCwwLDEtLjI2Ny0uMjY3VjQuMTMxYS41MzMuNTMzLDAsMCwxLC41MzMtLjUzM1oiLz48L2c+PHBhdGggZmlsbD0idXJsKCNiNDAzYWNhNy1mMzg3LTQ0MzQtOTZiNC1hZTE1N2VkYzgzNWYpIiBkPSJNOC40NTksOS45SDQuODdhLjE5My4xOTMsMCwwLDEtLjItLjE4MS4xNjYuMTY2LDAsMCwxLC4wMTgtLjA3NUw4Ljk5MSwxLjEzYS4yMDYuMjA2LDAsMCwxLC4xODYtLjEwNmg0LjI0NWEuMTkzLjE5MywwLDAsMSwuMi4xODEuMTY1LjE2NSwwLDAsMS0uMDM1LjFMOC41MzQsNy45NjZoNC45MjhhLjE5My4xOTMsMCwwLDEsLjIuMTgxLjE3Ni4xNzYsMCwwLDEtLjA1Mi4xMjJMNS40MjEsMTYuNzg4Yy0uMDc3LjA0Ni0uNjI0LjUtLjM1Ni0uMTg5aDBaIi8+PC9zdmc+;fontColor=#000000;fontStyle=0;spacing=0;spacingTop=0;html=1;" vertex="1" parent="1">
          <mxGeometry x="273" y="24" width="50" height="50" as="geometry" />
        </mxCell>
        <mxCell id="7IEczPaFFcGmBDg-Cxxi-29" value="&lt;i&gt;filter&lt;/i&gt;&lt;br&gt;Azure Function&lt;br&gt;(resize)" style="shape=image;verticalLabelPosition=bottom;labelBackgroundColor=none;verticalAlign=top;aspect=fixed;imageAspect=0;image=data:image/svg+xml,PHN2ZyB4bWxucz0iaHR0cDovL3d3dy53My5vcmcvMjAwMC9zdmciIHZpZXdCb3g9IjAgMCAxOCAxOCIgaGVpZ2h0PSIxOCIgd2lkdGg9IjE4IiBpZD0iYTJjODgzMDYtZmEwMy00ZTViLWIxOTItNDAxZjBiNzc4MDhiIj48ZGVmcz48bGluZWFyR3JhZGllbnQgZ3JhZGllbnRVbml0cz0idXNlclNwYWNlT25Vc2UiIGdyYWRpZW50VHJhbnNmb3JtPSJ0cmFuc2xhdGUoMjEyLjU3MyAzNzAuNTQ4KSBzY2FsZSgxLjE1NiAxLjAyOSkiIHkyPSItMzU5LjIzMiIgeDI9Ii0xNzUuOTkzIiB5MT0iLTM0My43MjMiIHgxPSItMTc1Ljk5MyIgaWQ9ImI0MDNhY2E3LWYzODctNDQzNC05NmI0LWFlMTU3ZWRjODM1ZiI+PHN0b3Agc3RvcC1jb2xvcj0iI2ZlYTExYiIgb2Zmc2V0PSIwIi8+PHN0b3Agc3RvcC1jb2xvcj0iI2ZlYTUxYSIgb2Zmc2V0PSIwLjI4NCIvPjxzdG9wIHN0b3AtY29sb3I9IiNmZWIwMTgiIG9mZnNldD0iMC41NDciLz48c3RvcCBzdG9wLWNvbG9yPSIjZmZjMzE0IiBvZmZzZXQ9IjAuOCIvPjxzdG9wIHN0b3AtY29sb3I9IiNmZmQ3MGYiIG9mZnNldD0iMSIvPjwvbGluZWFyR3JhZGllbnQ+PC9kZWZzPjx0aXRsZT5JY29uLWNvbXB1dGUtMjk8L3RpdGxlPjxnPjxwYXRoIGZpbGw9IiM1MGU2ZmYiIHRyYW5zZm9ybT0idHJhbnNsYXRlKDEyLjUwNyAxNi43MDUpIHJvdGF0ZSgxMzQuOTE5KSIgZD0iTTIuMzcsNy40NzVIMy4yYS4yNjcuMjY3LDAsMCwxLC4yNjcuMjY3djYuMTQ4YS41MzMuNTMzLDAsMCwxLS41MzMuNTMzSDIuMWEwLDAsMCwwLDEsMCwwVjcuNzQxYS4yNjcuMjY3LDAsMCwxLC4yNjctLjI2N1oiLz48cGF0aCBmaWxsPSIjMTQ5MGRmIiB0cmFuc2Zvcm09InRyYW5zbGF0ZSg1Ljc1OSAwLjExNCkgcm90YXRlKDQ0LjkxOSkiIGQ9Ik0yLjMyNSwzLjZoLjgzM2EuMjY3LjI2NywwLDAsMSwuMjY3LjI2N3Y2LjU4M2EwLDAsMCwwLDEsMCwwSDIuNTkxYS41MzMuNTMzLDAsMCwxLS41MzMtLjUzM1YzLjg2NUEuMjY3LjI2NywwLDAsMSwyLjMyNSwzLjZaIi8+PC9nPjxnPjxwYXRoIGZpbGw9IiM1MGU2ZmYiIHRyYW5zZm9ybT0idHJhbnNsYXRlKDEyLjIyMyAtNy41NTUpIHJvdGF0ZSg0NS4wODEpIiBkPSJNMTQuNTMsNy40NzVoLjgzM2EuNTMzLjUzMywwLDAsMSwuNTMzLjUzM3Y2LjE0OGEuMjY3LjI2NywwLDAsMS0uMjY3LjI2N0gxNC44YS4yNjcuMjY3LDAsMCwxLS4yNjctLjI2N1Y3LjQ3NWEwLDAsMCwwLDEsMCwwWiIvPjxwYXRoIGZpbGw9IiMxNDkwZGYiIHRyYW5zZm9ybT0idHJhbnNsYXRlKDMxLjAyMiAxLjIyMikgcm90YXRlKDEzNS4wODEpIiBkPSJNMTUuMTA4LDMuNmguODMzYTAsMCwwLDAsMSwwLDB2Ni41ODNhLjI2Ny4yNjcsMCwwLDEtLjI2Ny4yNjdoLS44MzNhLjI2Ny4yNjcsMCwwLDEtLjI2Ny0uMjY3VjQuMTMxYS41MzMuNTMzLDAsMCwxLC41MzMtLjUzM1oiLz48L2c+PHBhdGggZmlsbD0idXJsKCNiNDAzYWNhNy1mMzg3LTQ0MzQtOTZiNC1hZTE1N2VkYzgzNWYpIiBkPSJNOC40NTksOS45SDQuODdhLjE5My4xOTMsMCwwLDEtLjItLjE4MS4xNjYuMTY2LDAsMCwxLC4wMTgtLjA3NUw4Ljk5MSwxLjEzYS4yMDYuMjA2LDAsMCwxLC4xODYtLjEwNmg0LjI0NWEuMTkzLjE5MywwLDAsMSwuMi4xODEuMTY1LjE2NSwwLDAsMS0uMDM1LjFMOC41MzQsNy45NjZoNC45MjhhLjE5My4xOTMsMCwwLDEsLjIuMTgxLjE3Ni4xNzYsMCwwLDEtLjA1Mi4xMjJMNS40MjEsMTYuNzg4Yy0uMDc3LjA0Ni0uNjI0LjUtLjM1Ni0uMTg5aDBaIi8+PC9zdmc+;fontColor=#000000;fontStyle=0;spacing=0;spacingTop=0;html=1;" vertex="1" parent="1">
          <mxGeometry x="524" y="24" width="50" height="50" as="geometry" />
        </mxCell>
        <mxCell id="7IEczPaFFcGmBDg-Cxxi-30" value="&lt;i&gt;filter&lt;/i&gt;&lt;br&gt;Azure Function&lt;br&gt;(publish)" style="shape=image;verticalLabelPosition=bottom;labelBackgroundColor=none;verticalAlign=top;aspect=fixed;imageAspect=0;image=data:image/svg+xml,PHN2ZyB4bWxucz0iaHR0cDovL3d3dy53My5vcmcvMjAwMC9zdmciIHZpZXdCb3g9IjAgMCAxOCAxOCIgaGVpZ2h0PSIxOCIgd2lkdGg9IjE4IiBpZD0iYTJjODgzMDYtZmEwMy00ZTViLWIxOTItNDAxZjBiNzc4MDhiIj48ZGVmcz48bGluZWFyR3JhZGllbnQgZ3JhZGllbnRVbml0cz0idXNlclNwYWNlT25Vc2UiIGdyYWRpZW50VHJhbnNmb3JtPSJ0cmFuc2xhdGUoMjEyLjU3MyAzNzAuNTQ4KSBzY2FsZSgxLjE1NiAxLjAyOSkiIHkyPSItMzU5LjIzMiIgeDI9Ii0xNzUuOTkzIiB5MT0iLTM0My43MjMiIHgxPSItMTc1Ljk5MyIgaWQ9ImI0MDNhY2E3LWYzODctNDQzNC05NmI0LWFlMTU3ZWRjODM1ZiI+PHN0b3Agc3RvcC1jb2xvcj0iI2ZlYTExYiIgb2Zmc2V0PSIwIi8+PHN0b3Agc3RvcC1jb2xvcj0iI2ZlYTUxYSIgb2Zmc2V0PSIwLjI4NCIvPjxzdG9wIHN0b3AtY29sb3I9IiNmZWIwMTgiIG9mZnNldD0iMC41NDciLz48c3RvcCBzdG9wLWNvbG9yPSIjZmZjMzE0IiBvZmZzZXQ9IjAuOCIvPjxzdG9wIHN0b3AtY29sb3I9IiNmZmQ3MGYiIG9mZnNldD0iMSIvPjwvbGluZWFyR3JhZGllbnQ+PC9kZWZzPjx0aXRsZT5JY29uLWNvbXB1dGUtMjk8L3RpdGxlPjxnPjxwYXRoIGZpbGw9IiM1MGU2ZmYiIHRyYW5zZm9ybT0idHJhbnNsYXRlKDEyLjUwNyAxNi43MDUpIHJvdGF0ZSgxMzQuOTE5KSIgZD0iTTIuMzcsNy40NzVIMy4yYS4yNjcuMjY3LDAsMCwxLC4yNjcuMjY3djYuMTQ4YS41MzMuNTMzLDAsMCwxLS41MzMuNTMzSDIuMWEwLDAsMCwwLDEsMCwwVjcuNzQxYS4yNjcuMjY3LDAsMCwxLC4yNjctLjI2N1oiLz48cGF0aCBmaWxsPSIjMTQ5MGRmIiB0cmFuc2Zvcm09InRyYW5zbGF0ZSg1Ljc1OSAwLjExNCkgcm90YXRlKDQ0LjkxOSkiIGQ9Ik0yLjMyNSwzLjZoLjgzM2EuMjY3LjI2NywwLDAsMSwuMjY3LjI2N3Y2LjU4M2EwLDAsMCwwLDEsMCwwSDIuNTkxYS41MzMuNTMzLDAsMCwxLS41MzMtLjUzM1YzLjg2NUEuMjY3LjI2NywwLDAsMSwyLjMyNSwzLjZaIi8+PC9nPjxnPjxwYXRoIGZpbGw9IiM1MGU2ZmYiIHRyYW5zZm9ybT0idHJhbnNsYXRlKDEyLjIyMyAtNy41NTUpIHJvdGF0ZSg0NS4wODEpIiBkPSJNMTQuNTMsNy40NzVoLjgzM2EuNTMzLjUzMywwLDAsMSwuNTMzLjUzM3Y2LjE0OGEuMjY3LjI2NywwLDAsMS0uMjY3LjI2N0gxNC44YS4yNjcuMjY3LDAsMCwxLS4yNjctLjI2N1Y3LjQ3NWEwLDAsMCwwLDEsMCwwWiIvPjxwYXRoIGZpbGw9IiMxNDkwZGYiIHRyYW5zZm9ybT0idHJhbnNsYXRlKDMxLjAyMiAxLjIyMikgcm90YXRlKDEzNS4wODEpIiBkPSJNMTUuMTA4LDMuNmguODMzYTAsMCwwLDAsMSwwLDB2Ni41ODNhLjI2Ny4yNjcsMCwwLDEtLjI2Ny4yNjdoLS44MzNhLjI2Ny4yNjcsMCwwLDEtLjI2Ny0uMjY3VjQuMTMxYS41MzMuNTMzLDAsMCwxLC41MzMtLjUzM1oiLz48L2c+PHBhdGggZmlsbD0idXJsKCNiNDAzYWNhNy1mMzg3LTQ0MzQtOTZiNC1hZTE1N2VkYzgzNWYpIiBkPSJNOC40NTksOS45SDQuODdhLjE5My4xOTMsMCwwLDEtLjItLjE4MS4xNjYuMTY2LDAsMCwxLC4wMTgtLjA3NUw4Ljk5MSwxLjEzYS4yMDYuMjA2LDAsMCwxLC4xODYtLjEwNmg0LjI0NWEuMTkzLjE5MywwLDAsMSwuMi4xODEuMTY1LjE2NSwwLDAsMS0uMDM1LjFMOC41MzQsNy45NjZoNC45MjhhLjE5My4xOTMsMCwwLDEsLjIuMTgxLjE3Ni4xNzYsMCwwLDEtLjA1Mi4xMjJMNS40MjEsMTYuNzg4Yy0uMDc3LjA0Ni0uNjI0LjUtLjM1Ni0uMTg5aDBaIi8+PC9zdmc+;fontColor=#000000;fontStyle=0;spacing=0;spacingTop=0;html=1;" vertex="1" parent="1">
          <mxGeometry x="806" y="24" width="50" height="50" as="geometry" />
        </mxCell>
        <mxCell id="7IEczPaFFcGmBDg-Cxxi-22" value="bar.jpg" style="shape=image;verticalLabelPosition=bottom;labelBackgroundColor=none;verticalAlign=top;aspect=fixed;imageAspect=0;image=data:image/svg+xml,PHN2ZyB4bWxucz0iaHR0cDovL3d3dy53My5vcmcvMjAwMC9zdmciIHZpZXdCb3g9IjAgMCAxOCAxOCIgaGVpZ2h0PSIxOCIgd2lkdGg9IjE4Ij48ZGVmcz48bGluZWFyR3JhZGllbnQgZ3JhZGllbnRVbml0cz0idXNlclNwYWNlT25Vc2UiIHkyPSI1Ljc4OCIgeDI9IjkiIHkxPSIxNS44MzQiIHgxPSI5IiBpZD0iYTljNjIzMDctMWNkMC00MDBjLTkxMWItMTdlYzZhOTExMGNlIj48c3RvcCBzdG9wLWNvbG9yPSIjMzJiZWRkIiBvZmZzZXQ9IjAiLz48c3RvcCBzdG9wLWNvbG9yPSIjMzJkNGY1IiBvZmZzZXQ9IjAuNzc1Ii8+PC9saW5lYXJHcmFkaWVudD48L2RlZnM+PHRpdGxlPk1zUG9ydGFsRnguYmFzZS5pbWFnZXMtNzwvdGl0bGU+PGcgaWQ9ImYzMWQyMTRlLWYwOWUtNDllMy1iM2QyLTdjNWQ1NTY4MmQwOSI+PGc+PHBhdGggZmlsbD0idXJsKCNhOWM2MjMwNy0xY2QwLTQwMGMtOTExYi0xN2VjNmE5MTEwY2UpIiBkPSJNLjUsNS43ODhoMTdhMCwwLDAsMCwxLDAsMHY5LjQ3OGEuNTY4LjU2OCwwLDAsMS0uNTY4LjU2OEgxLjA2OEEuNTY4LjU2OCwwLDAsMSwuNSwxNS4yNjZWNS43ODhBMCwwLDAsMCwxLC41LDUuNzg4WiIvPjxwYXRoIGZpbGw9IiMwMDc4ZDQiIGQ9Ik0xLjA3MSwyLjE2NkgxNi45MjlhLjU2OC41NjgsMCwwLDEsLjU2OC41NjhWNS43ODhhMCwwLDAsMCwxLDAsMEguNWEwLDAsMCwwLDEsMCwwVjIuNzM0QS41NjguNTY4LDAsMCwxLDEuMDcxLDIuMTY2WiIvPjxyZWN0IGZpbGw9IiMwMDc4ZDQiIHJ4PSIwLjI4MyIgaGVpZ2h0PSIzLjQwOCIgd2lkdGg9IjYuMjgxIiB5PSI3LjA0OSIgeD0iMi4zMjgiLz48cmVjdCBmaWxsPSIjZmZmIiByeD0iMC4yODMiIGhlaWdodD0iMy40MDgiIHdpZHRoPSI2LjI4MSIgeT0iNy4wNDkiIHg9IjkuMzM2Ii8+PHJlY3QgZmlsbD0iIzAwNzhkNCIgcng9IjAuMjgzIiBoZWlnaHQ9IjMuNDA4IiB3aWR0aD0iNi4yODEiIHk9IjExLjEyOCIgeD0iMi4yOTYiLz48cmVjdCBmaWxsPSIjMDA3OGQ0IiByeD0iMC4yODMiIGhlaWdodD0iMy40MDgiIHdpZHRoPSI2LjI4MSIgeT0iMTEuMTI4IiB4PSI5LjMwNCIvPjwvZz48L2c+PC9zdmc+;fontColor=#000000;" vertex="1" parent="1">
          <mxGeometry x="466" y="200" width="30" height="30" as="geometry" />
        </mxCell>
      </root>
    </mxGraphModel>
  </diagram>
</mxfile>
